# This file uses centimeters as units for non-parametric coordinates.

mtllib radio.mtl
g default
v 8.489045 28.102562 -7.203375
v -8.489045 28.102562 -7.203375
v 8.489045 28.102562 7.203375
v -8.489045 28.102562 7.203375
v 13.045699 15.234088 -7.203375
v -13.045699 15.234088 -7.203375
v -13.045699 15.234088 7.203375
v 13.045699 15.234088 7.203375
v 11.031776 24.926879 7.203375
v -11.031776 24.926879 7.203375
v -11.031776 24.926879 -7.203375
v 11.031776 24.926879 -7.203375
v -0.000000 30.471669 7.203375
v 0.000000 30.471669 -7.203375
v 0.000000 22.852879 -7.203375
v 4.191351 29.939969 7.203375
v 4.191351 29.939969 -7.203375
v 6.522849 22.852879 -7.203375
v -6.522849 22.852879 -7.203375
v -4.191351 29.939969 -7.203375
v -4.191351 29.939969 7.203375
v 0.000000 15.234088 -7.203375
v 12.490190 19.882104 7.203375
v 12.490190 19.882104 -7.203375
v -12.490190 19.882104 -7.203375
v -12.490190 19.882104 7.203375
v 13.045699 2.492828 -7.203375
v 13.045699 2.492828 7.203375
v -0.000000 2.492828 7.203375
v -13.045699 2.492828 7.203375
v -13.045699 2.492828 -7.203375
v 0.000000 2.492828 -7.203375
v 0.000000 2.492828 -8.926238
v 16.165896 2.492828 -8.926238
v 16.165896 -0.003492 -8.926238
v 0.000000 -0.003492 -8.926238
v -16.165896 -0.003492 8.926238
v -16.165896 -0.003492 -8.926238
v -16.165896 2.492828 8.926238
v -16.165896 2.492828 -8.926238
v 16.165896 2.492828 8.926238
v 16.165896 -0.003492 8.926238
v -0.000000 2.492828 8.926238
v -0.000000 -0.003492 8.926238
v 0.787440 23.264332 7.192848
v -0.000000 18.624522 7.192848
v 10.764624 19.412400 7.192848
v 9.507694 23.760220 7.192848
v -0.000000 21.972752 7.192848
v -0.000000 28.538977 7.192848
v -0.783227 28.531746 7.192848
v -0.787438 23.264332 7.192847
v 0.783227 28.531746 7.192848
v 6.388629 27.109320 7.192848
v -6.388629 27.109320 7.192848
v -10.764624 19.412400 7.192848
v -9.507691 23.760220 7.192847
v 11.243386 4.425520 7.192848
v -11.243386 4.425520 7.192848
v 11.243385 13.698799 7.192848
v 12.255463 15.309695 7.198759
v 11.122731 16.416057 7.192848
v 10.064709 14.954056 7.192848
v 7.740214 7.839287 7.192848
v 6.471714 9.133012 7.192848
v -0.000001 5.434820 7.192848
v -0.000001 3.416233 7.198345
v -6.471716 9.133012 7.192848
v -7.740214 7.839287 7.192848
v -10.064711 14.954056 7.192848
v -11.122732 16.416057 7.192848
v -12.255464 15.309695 7.198759
v -11.243387 13.698799 7.192848
v -0.784703 19.853072 7.192848
v 0.784703 19.853072 7.192848
v 0.787440 23.264332 6.376451
v 0.784703 19.853072 6.376451
v 10.764624 19.412400 6.376451
v 9.507694 23.760220 6.376451
v 6.388629 27.109320 6.376451
v 0.783227 28.531746 6.376451
v 11.122731 16.416057 6.376451
v -0.783227 28.531746 6.376451
v -0.787438 23.264332 6.376450
v -6.388629 27.109320 6.376451
v -9.507687 23.760220 6.376450
v -11.122732 16.416057 6.376451
v -0.784703 19.853072 6.376451
v -10.764624 19.412400 6.376451
v -0.000001 3.416233 6.381948
v 11.243386 4.425520 6.376451
v 7.740214 7.839287 6.376451
v 11.243385 13.698799 6.376451
v -11.243386 4.425520 6.376451
v -0.000001 3.416233 6.381948
v -7.740214 7.839287 6.376451
v -11.243387 13.698799 6.376451
v 6.471714 9.133012 6.376451
v -0.000001 5.434820 6.376451
v -0.000000 18.624522 6.376451
v -6.471716 9.133012 6.376451
v 10.064709 14.954056 6.376451
v -10.064711 14.954056 6.376451
vt 0.608247 0.016200
vt 0.608241 0.301107
vt 0.582607 0.301108
vt 0.582684 0.016202
vt 0.559248 0.301102
vt 0.559324 0.016195
vt 0.518873 0.301091
vt 0.518950 0.016185
vt 0.454737 0.301074
vt 0.454813 0.016167
vt 0.395644 0.301058
vt 0.395721 0.016152
vt 0.233658 0.301015
vt 0.233734 0.016108
vt 0.761681 0.016166
vt 0.761747 0.301072
vt 0.697610 0.301087
vt 0.697543 0.016181
vt 0.820773 0.016152
vt 0.820839 0.301059
vt 0.657235 0.301096
vt 0.657170 0.016190
vt 0.982759 0.016115
vt 0.982825 0.301021
vt 0.633876 0.301102
vt 0.633810 0.016196
vt 0.635042 0.450453
vt 0.988089 0.450453
vt 0.988089 0.482190
vt 0.635042 0.482190
vt 0.631938 0.542187
vt 0.984987 0.542187
vt 0.984987 0.573923
vt 0.631938 0.573923
vt 0.429395 0.568315
vt 0.429395 0.524946
vt 0.445541 0.524946
vt 0.445541 0.568315
vt 0.429395 0.481249
vt 0.445541 0.481249
vt 0.429395 0.635282
vt 0.445541 0.635282
vt 0.478555 0.519343
vt 0.478555 0.574620
vt 0.462411 0.574620
vt 0.462411 0.519343
vt 0.478555 0.617198
vt 0.462411 0.617198
vt 0.478555 0.481249
vt 0.462411 0.481249
vt 0.478555 0.635282
vt 0.462411 0.635282
vt 0.508918 0.568315
vt 0.508918 0.635282
vt 0.492774 0.635282
vt 0.492774 0.568315
vt 0.508918 0.524946
vt 0.492774 0.524946
vt 0.508918 0.481249
vt 0.492774 0.481249
vt 0.533743 0.635282
vt 0.533743 0.617198
vt 0.549889 0.617198
vt 0.549889 0.635282
vt 0.533743 0.574620
vt 0.549889 0.574620
vt 0.533743 0.519343
vt 0.549889 0.519343
vt 0.533743 0.481249
vt 0.549889 0.481249
vt 0.468155 0.826348
vt 0.468092 0.896944
vt 0.451948 0.896944
vt 0.452010 0.826362
vt 0.468092 0.975264
vt 0.451948 0.975264
vt 0.468133 0.765118
vt 0.451988 0.765146
vt 0.468233 0.690623
vt 0.452088 0.690651
vt 0.492527 0.888039
vt 0.492667 0.797089
vt 0.508812 0.797068
vt 0.508672 0.888039
vt 0.492527 0.975264
vt 0.508672 0.975264
vt 0.492381 0.733667
vt 0.508525 0.733626
vt 0.492192 0.659172
vt 0.508336 0.659131
vt 0.583037 0.411127
vt 0.583037 0.458144
vt 0.566893 0.458144
vt 0.566893 0.411127
vt 0.583037 0.532150
vt 0.566893 0.532150
vt 0.583037 0.578814
vt 0.566893 0.578814
vt 0.591598 0.458144
vt 0.591598 0.411127
vt 0.607743 0.411127
vt 0.607743 0.458144
vt 0.591598 0.532150
vt 0.607743 0.532150
vt 0.591598 0.578814
vt 0.607743 0.578814
vt 0.665030 0.327122
vt 0.665030 0.329937
vt 0.630960 0.330610
vt 0.630960 0.327122
vt 0.949936 0.329937
vt 0.984007 0.330610
vt 0.665030 0.324307
vt 0.630960 0.323634
vt 0.949936 0.327122
vt 0.984007 0.327122
vt 0.949936 0.324307
vt 0.984007 0.323634
vt 0.631044 0.309082
vt 0.807567 0.309082
vt 0.807567 0.316058
vt 0.631044 0.316058
vt 0.984092 0.316058
vt 0.984092 0.309082
vt 0.190826 0.458625
vt 0.287688 0.458558
vt 0.287737 0.529785
vt 0.287639 0.387331
vt 0.384549 0.458491
vt 0.377821 0.504264
vt 0.314139 0.579002
vt 0.250013 0.594971
vt 0.377758 0.412728
vt 0.249825 0.322197
vt 0.313972 0.338078
vt 0.354494 0.551209
vt 0.190925 0.601078
vt 0.354366 0.365816
vt 0.190728 0.316171
vt 0.028938 0.601189
vt 0.028840 0.458737
vt 0.028742 0.316283
vt 0.691080 0.684841
vt 0.691110 0.728210
vt 0.582134 0.733812
vt 0.595859 0.678536
vt 0.578223 0.771906
vt 0.629917 0.635957
vt 0.691126 0.617873
vt 0.807614 0.434488
vt 0.631090 0.434488
vt 0.631090 0.402751
vt 0.807614 0.402751
vt 0.984138 0.434488
vt 0.984138 0.402751
vt 0.635324 0.524387
vt 0.635324 0.492650
vt 0.811848 0.492650
vt 0.811848 0.524387
vt 0.988373 0.492650
vt 0.988373 0.524387
vt 0.153244 0.735102
vt 0.153244 0.651622
vt 0.161796 0.651714
vt 0.161842 0.718681
vt 0.144645 0.718681
vt 0.144691 0.651714
vt 0.153244 0.627051
vt 0.199011 0.633810
vt 0.153244 0.777669
vt 0.107476 0.633810
vt 0.245940 0.657170
vt 0.223005 0.669798
vt 0.161812 0.762050
vt 0.060547 0.657170
vt 0.083483 0.669798
vt 0.144676 0.762050
vt 0.273706 0.697544
vt 0.257064 0.712376
vt 0.274162 0.805739
vt 0.262143 0.825601
vt 0.032782 0.697544
vt 0.049424 0.712376
vt 0.032523 0.806461
vt 0.044392 0.825962
vt 0.289631 0.761681
vt 0.270789 0.767652
vt 0.016856 0.761681
vt 0.035699 0.767652
vt 0.295697 0.820774
vt 0.286352 0.819805
vt 0.010791 0.820774
vt 0.020332 0.820527
vt 0.295697 0.982760
vt 0.276016 0.958189
vt 0.274828 0.841560
vt 0.010791 0.982760
vt 0.031707 0.841921
vt 0.030471 0.958189
vt 0.153244 0.982760
vt 0.153244 0.971020
vt 0.807745 0.684841
vt 0.807699 0.617873
vt 0.868908 0.635957
vt 0.902967 0.678536
vt 0.916692 0.733812
vt 0.807715 0.728210
vt 0.920602 0.771906
vt 0.082465 0.898704
vt 0.068614 0.915152
vt 0.153134 0.945721
vt 0.153134 0.971384
vt 0.223802 0.898704
vt 0.237653 0.915152
vt 0.692388 0.962182
vt 0.569615 0.949351
vt 0.607868 0.905950
vt 0.569615 0.831455
vt 0.921863 0.949351
vt 0.799091 0.962182
vt 0.883611 0.905950
vt 0.921863 0.831455
vt 0.744264 0.933425
vt 0.673596 0.886408
vt 0.744264 0.765737
vt 0.634362 0.812402
vt 0.814933 0.886408
vt 0.854167 0.812402
vn 0.000000 0.000000 -1.000000
vn 0.000000 0.000000 -1.000000
vn 0.000000 0.000000 -1.000000
vn 0.000000 1.000000 -0.000000
vn 0.000000 1.000000 -0.000000
vn -0.268806 0.963194 -0.000000
vn -0.268806 0.963194 -0.000000
vn 0.000000 0.000000 1.000000
vn 0.000000 0.000000 1.000000
vn 0.000000 0.000000 1.000000
vn 0.000000 0.000000 1.000000
vn -0.979089 0.203431 -0.000000
vn -0.979089 0.203431 -0.000000
vn -0.899149 0.437643 -0.000000
vn -0.899149 0.437643 -0.000000
vn 0.979089 0.203431 0.000000
vn 0.979089 0.203431 0.000000
vn 0.899149 0.437643 0.000000
vn 0.899149 0.437643 0.000000
vn 0.000000 0.000000 -1.000000
vn 0.000000 0.000000 -1.000000
vn 0.000000 0.000000 -1.000000
vn 0.000000 0.000000 -1.000000
vn -1.000000 0.000000 -0.000000
vn -1.000000 0.000000 -0.000000
vn -1.000000 0.000000 -0.000000
vn -1.000000 0.000000 -0.000000
vn -0.000000 0.000000 1.000000
vn -0.000000 0.000000 1.000000
vn -0.000000 0.000000 1.000000
vn -0.000000 0.000000 1.000000
vn 1.000000 0.000000 0.000000
vn 1.000000 0.000000 0.000000
vn 1.000000 0.000000 0.000000
vn 1.000000 0.000000 0.000000
vn -0.000001 -0.000000 1.000000
vn -0.000001 -0.000000 1.000000
vn -0.000001 -0.000000 1.000000
vn -0.000001 -0.000000 1.000000
vn -0.591117 0.806586 -0.000000
vn -0.591117 0.806586 -0.000000
vn 0.000000 0.000000 -1.000000
vn 0.000000 0.000000 -1.000000
vn 0.000000 0.000000 -1.000000
vn 0.000000 0.000000 -1.000000
vn 0.591117 0.806586 0.000000
vn 0.591117 0.806586 0.000000
vn -0.000000 0.000000 1.000000
vn -0.000000 0.000000 1.000000
vn -0.000000 0.000000 1.000000
vn -0.000000 0.000000 1.000000
vn 0.268806 0.963194 0.000000
vn 0.268806 0.963194 0.000000
vn -0.000000 0.000000 1.000000
vn -0.000000 0.000000 1.000000
vn -0.000000 0.000000 1.000000
vn 0.000000 0.000000 -1.000000
vn 0.000000 0.000000 -1.000000
vn 0.000000 0.000000 -1.000000
vn 0.000000 0.000000 -1.000000
vn 0.000000 0.000000 -1.000000
vn 0.000000 0.000000 -1.000000
vn 0.000000 -0.000000 1.000000
vn 0.000000 -0.000000 1.000000
vn 0.000000 -0.000000 1.000000
vn -0.000000 0.000000 1.000000
vn -0.000000 0.000000 1.000000
vn -0.000000 0.000000 1.000000
vn -0.000000 0.000000 1.000000
vn -0.000000 0.000000 1.000000
vn -0.000000 0.000000 1.000000
vn -0.000000 0.000000 1.000000
vn 0.000000 0.000000 -1.000000
vn 0.000000 0.000000 -1.000000
vn 0.000000 0.000000 -1.000000
vn 0.000000 0.000000 -1.000000
vn 0.000000 0.000000 -1.000000
vn 0.000000 0.000000 -1.000000
vn 0.000000 0.000000 -1.000000
vn 0.000000 0.000000 -1.000000
vn 0.000000 0.000000 -1.000000
vn 0.000000 0.000000 -1.000000
vn 0.000000 0.000000 -1.000000
vn 0.000000 0.000000 -1.000000
vn 0.000000 0.000000 -1.000000
vn 0.000000 0.000000 -1.000000
vn 0.000000 0.000000 -1.000000
vn -0.000001 0.000000 1.000000
vn -0.000001 0.000000 1.000000
vn -0.000001 0.000000 1.000000
vn -0.000001 0.000000 1.000000
vn -0.000001 0.000000 1.000000
vn -0.000001 0.000000 1.000000
vn 0.000000 0.000000 1.000000
vn 0.000000 0.000000 1.000000
vn 0.000000 0.000000 1.000000
vn 0.000000 0.000000 1.000000
vn 0.999490 0.031929 0.000000
vn 0.999490 0.031929 0.000000
vn 0.000000 0.000000 -1.000000
vn 0.000000 0.000000 -1.000000
vn 0.000000 0.000000 -1.000000
vn 0.000000 0.000000 -1.000000
vn 0.000000 0.000000 -1.000000
vn 0.000000 0.000000 -1.000000
vn -0.999490 0.031929 -0.000000
vn -0.999490 0.031929 -0.000000
vn 0.000000 0.000000 -1.000000
vn 0.000000 0.000000 -1.000000
vn 0.000000 0.000000 -1.000000
vn 0.000000 0.000000 -1.000000
vn 0.000000 0.000000 -1.000000
vn 0.000000 0.000000 -1.000000
vn -0.000000 0.000000 1.000000
vn -0.000000 0.000000 1.000000
vn -0.000000 0.000000 1.000000
vn 0.000000 -0.000000 1.000000
vn 0.000000 -0.000000 1.000000
vn 0.000000 -0.000000 1.000000
vn 1.000000 0.000000 0.000000
vn 1.000000 0.000000 0.000000
vn -1.000000 0.000000 -0.000000
vn -1.000000 0.000000 -0.000000
vn 0.000000 0.000000 -1.000000
vn 0.000000 0.000000 -1.000000
vn 0.000000 0.000000 -1.000000
vn 0.000000 0.000000 -1.000000
vn 0.000000 0.000000 -1.000000
vn 0.000000 0.000000 -1.000000
vn 0.000000 0.000000 -1.000000
vn 0.000000 0.000000 -1.000000
vn 0.000000 1.000000 -0.000000
vn 0.000000 1.000000 -0.000000
vn 0.000000 1.000000 -0.000000
vn 0.000000 1.000000 -0.000000
vn 0.000000 1.000000 -0.000000
vn 0.000000 1.000000 -0.000000
vn 0.000000 1.000000 -0.000000
vn 0.000000 1.000000 -0.000000
vn 0.000000 1.000000 -0.000000
vn 0.000000 1.000000 -0.000000
vn 0.000000 1.000000 -0.000000
vn 0.000000 1.000000 -0.000000
vn 0.000000 -1.000000 0.000000
vn 0.000000 -1.000000 0.000000
vn 0.000000 -1.000000 0.000000
vn 0.000000 -1.000000 0.000000
vn 0.000000 1.000000 -0.000000
vn 0.000000 1.000000 -0.000000
vn 0.000000 1.000000 -0.000000
vn 0.000000 1.000000 -0.000000
vn 0.000000 1.000000 -0.000000
vn 0.000000 1.000000 -0.000000
vn 0.000000 1.000000 -0.000000
vn 0.000000 1.000000 -0.000000
vn -0.000000 1.000000 0.000000
vn -0.000000 1.000000 0.000000
vn -0.000000 1.000000 0.000000
vn -0.000000 1.000000 0.000000
vn 0.000000 -1.000000 0.000000
vn 0.000000 -1.000000 0.000000
vn 0.000000 -1.000000 0.000000
vn 0.000000 -1.000000 0.000000
vn -0.005656 -0.001635 0.999983
vn -0.005656 -0.001635 0.999983
vn -0.005656 -0.001635 0.999983
vn -0.005656 -0.001635 0.999983
vn 0.000615 -0.005675 0.999984
vn 0.000615 -0.005675 0.999984
vn 0.000615 -0.005675 0.999984
vn 0.000615 -0.005675 0.999984
vn -0.000615 -0.005675 0.999984
vn -0.000615 -0.005675 0.999984
vn -0.000615 -0.005675 0.999984
vn -0.000615 -0.005675 0.999984
vn -0.003829 -0.003323 0.999987
vn -0.003829 -0.003323 0.999987
vn -0.003829 -0.003323 0.999987
vn -0.003829 -0.003323 0.999987
vn 0.001644 -0.004995 0.999986
vn 0.001644 -0.004995 0.999986
vn 0.001644 -0.004995 0.999986
vn 0.001644 -0.004995 0.999986
vn 0.005656 -0.001635 0.999983
vn 0.005656 -0.001635 0.999983
vn 0.005656 -0.001635 0.999983
vn 0.005656 -0.001635 0.999983
vn -0.005909 -0.000706 0.999982
vn -0.005909 -0.000706 0.999982
vn -0.005909 -0.000706 0.999982
vn -0.005909 -0.000706 0.999982
vn -0.005909 -0.000706 0.999982
vn 0.005909 -0.000706 0.999982
vn 0.005909 -0.000706 0.999982
vn 0.005909 -0.000706 0.999982
vn 0.005909 -0.000706 0.999982
vn 0.005909 -0.000706 0.999982
vn -0.001644 -0.004995 0.999986
vn -0.001644 -0.004995 0.999986
vn -0.001644 -0.004995 0.999986
vn -0.001644 -0.004995 0.999986
vn 0.003829 -0.003323 0.999987
vn 0.003829 -0.003323 0.999987
vn 0.003829 -0.003323 0.999987
vn 0.003829 -0.003323 0.999987
vn -0.000153 0.005305 0.999986
vn -0.005841 0.000000 0.999983
vn -0.005841 0.000000 0.999983
vn -0.005841 0.000000 0.999983
vn -0.005203 0.000595 0.999986
vn 0.005841 0.000000 0.999983
vn 0.000153 0.005305 0.999986
vn 0.005203 0.000595 0.999986
vn 0.005841 0.000000 0.999983
vn 0.005841 0.000000 0.999983
vn 0.000000 0.000000 -1.000000
vn 0.000000 0.000000 -1.000000
vn 0.000000 0.000000 -1.000000
vn 0.000000 0.000000 -1.000000
vn 0.000000 0.000000 1.000000
vn 0.000000 0.000000 1.000000
vn 0.000000 0.000000 1.000000
vn -0.000000 0.000000 1.000000
vn -0.000000 0.000000 1.000000
vn -0.000018 0.000059 1.000000
vn -0.000453 0.001460 0.999999
vn 0.000000 0.001483 0.999999
vn 0.000000 0.001483 0.999999
vn 0.000018 0.000059 1.000000
vn 0.000453 0.001460 0.999999
vn -0.000000 0.000000 1.000000
vn -0.000000 0.000000 1.000000
vn 0.000448 0.000459 1.000000
vn 0.000443 0.000454 1.000000
vn 0.000019 0.000020 1.000000
vn -0.000443 0.000454 1.000000
vn -0.000448 0.000459 1.000000
vn -0.000019 0.000020 1.000000
vn 0.000000 0.005447 0.999985
vn 0.000000 0.005447 0.999985
vn -0.000000 0.000000 1.000000
vn 0.000000 0.000000 1.000000
vn 0.000000 0.000000 1.000000
vn -0.000000 0.000000 1.000000
vn -0.000000 0.000000 1.000000
vn 0.000000 0.000000 1.000000
vn -0.000000 0.000000 1.000000
vn -0.000000 0.000000 1.000000
vn -0.002679 -0.000119 0.999996
vn -0.002679 -0.000119 0.999996
vn -0.002679 -0.000119 0.999996
vn -0.002679 -0.000119 0.999996
vn 0.002679 -0.000119 0.999996
vn 0.002679 -0.000119 0.999996
vn 0.002679 -0.000119 0.999996
vn 0.002679 -0.000119 0.999996
vn -0.000000 0.000000 1.000000
vn -0.000000 0.000000 1.000000
vn -0.000000 0.000000 1.000000
vn -0.000000 0.000000 1.000000
vn -0.000000 0.000000 1.000000
vn -0.000000 0.000000 1.000000
vn -0.000000 0.000000 1.000000
vn -0.000000 0.000000 1.000000
vn -0.000000 0.000000 1.000000
vn -0.000000 0.000000 1.000000
vn -0.000000 0.000000 1.000000
vn -0.000000 0.000000 1.000000
vn -0.000000 0.000000 1.000000
vn -0.000000 0.000000 1.000000
vn 1.000000 -0.000802 0.000000
vn 1.000000 -0.000802 0.000000
vn 1.000000 -0.000802 0.000000
vn 1.000000 -0.000802 0.000000
vn -0.976663 -0.214776 -0.000000
vn -0.869323 -0.494244 -0.000000
vn -0.869323 -0.494244 -0.000000
vn -0.976663 -0.214776 -0.000000
vn -0.479838 -0.877357 -0.000000
vn -0.479838 -0.877357 -0.000000
vn -0.245964 -0.969279 -0.000000
vn -0.245964 -0.969279 -0.000000
vn 1.000000 0.000800 0.000000
vn 1.000000 0.000800 0.000000
vn 1.000000 0.000800 0.000000
vn 1.000000 0.000800 0.000000
vn 0.315485 0.948931 0.000000
vn 0.315485 0.948931 0.000000
vn 0.315485 0.948931 0.000000
vn 0.315485 0.948931 0.000000
vn -0.992934 -0.118670 -0.000000
vn -0.992934 -0.118670 -0.000000
vn -1.000000 0.000799 -0.000000
vn -1.000000 0.000799 -0.000000
vn -1.000000 0.000799 -0.000000
vn -1.000000 0.000799 -0.000000
vn 0.245964 -0.969279 0.000000
vn 0.479838 -0.877357 0.000001
vn 0.479838 -0.877357 0.000001
vn 0.245964 -0.969279 0.000000
vn 0.869323 -0.494244 0.000002
vn 0.869323 -0.494244 0.000002
vn -0.315485 0.948931 -0.000000
vn -0.315485 0.948931 -0.000000
vn -0.315485 0.948931 -0.000000
vn -0.315485 0.948931 -0.000000
vn 0.976663 -0.214776 0.000002
vn 0.992934 -0.118671 0.000000
vn 0.992934 -0.118671 0.000000
vn 0.976663 -0.214776 0.000002
vn -1.000000 -0.000802 -0.000000
vn -1.000000 -0.000802 -0.000000
vn -1.000000 -0.000802 -0.000000
vn -1.000000 -0.000802 -0.000000
vn -0.089408 0.995995 -0.000000
vn -0.089408 0.995995 -0.000000
vn -0.089408 0.995995 -0.000000
vn -0.089408 0.995995 -0.000000
vn 0.674867 -0.737939 0.000000
vn 0.496145 -0.868240 0.000000
vn 0.496145 -0.868240 0.000000
vn 0.674878 -0.737929 0.000000
vn -1.000000 -0.000000 -0.000000
vn -1.000000 -0.000000 -0.000000
vn -1.000000 -0.000000 -0.000000
vn -1.000000 -0.000000 -0.000000
vn 0.858302 -0.513145 0.000000
vn 0.858302 -0.513145 0.000000
vn 0.089408 0.995995 0.000000
vn 0.089408 0.995995 0.000000
vn 0.089408 0.995995 0.000000
vn 0.089408 0.995995 0.000000
vn -0.496145 -0.868240 -0.000000
vn -0.674867 -0.737939 -0.000000
vn -0.674878 -0.737929 -0.000000
vn -0.496145 -0.868240 -0.000000
vn -0.858302 -0.513145 -0.000000
vn -0.858302 -0.513145 -0.000000
vn 1.000000 0.000000 0.000000
vn 1.000000 0.000000 0.000000
vn 1.000000 0.000000 0.000000
vn 1.000000 0.000000 0.000000
vn -0.496146 0.868239 -0.000000
vn -0.687145 0.726520 -0.000000
vn -0.687145 0.726520 -0.000000
vn -0.496146 0.868239 -0.000000
vn 0.687145 0.726520 0.000000
vn 0.496146 0.868239 0.000000
vn 0.496146 0.868239 0.000000
vn 0.687145 0.726520 0.000000
vn -0.850952 0.525244 -0.000000
vn -0.850952 0.525244 -0.000000
vn -0.342615 -0.939476 -0.000000
vn -0.342615 -0.939476 -0.000000
vn -0.342615 -0.939476 -0.000000
vn -0.342615 -0.939476 -0.000000
vn 0.850952 0.525244 0.000000
vn 0.850952 0.525244 0.000000
vn 0.342614 -0.939476 0.000000
vn 0.342614 -0.939476 0.000000
vn 0.342614 -0.939476 0.000000
vn 0.342614 -0.939476 0.000000
s off
g pCube1
usemtl initialShadingGroup
f 22/125/1 15/126/2 18/127/3
s 1
f 13/1/4 14/2/5 20/3/6 21/4/7
s off
f 76/143/8 77/144/9 78/145/10 79/146/11
s 1
f 25/9/12 26/10/13 10/8/14 11/7/15
f 23/15/16 24/16/17 12/17/18 9/18/19
s off
f 33/150/20 34/151/21 35/152/22 36/153/23
f 38/27/24 37/28/25 39/29/26 40/30/27
f 42/156/28 41/157/29 43/158/30 44/159/31
f 42/31/32 35/32/33 34/33/34 41/34/35
f 49/162/36 50/163/37 51/164/38 52/165/39
s 1
f 11/7/15 10/8/14 4/6/40 2/5/41
s off
f 14/129/42 15/126/43 19/128/44 20/133/45
s 1
f 9/18/19 12/17/18 1/21/46 3/22/47
s off
f 45/166/48 53/167/49 50/163/50 49/162/51
s 1
f 16/26/52 17/25/53 14/2/5 13/1/4
s off
f 80/148/54 76/143/55 79/146/56
s 1
f 1/21/46 17/25/53 16/26/52 3/22/47
s off
f 1/136/57 18/127/58 17/130/59
f 2/138/60 19/128/61 11/135/62
s 1
f 21/4/7 20/3/6 2/5/41 4/6/40
s off
f 84/202/63 83/203/64 85/204/65
f 52/165/66 74/174/67 46/170/68
f 44/159/69 43/158/70 39/160/71 37/161/72
f 40/154/73 33/150/74 36/153/75 38/155/76
f 19/128/77 15/126/78 22/125/79
f 22/125/80 18/127/81 12/131/82 24/132/83
f 19/128/84 22/125/85 25/134/86 11/135/87
f 49/162/88 46/170/89 45/166/90
f 52/165/91 46/170/92 49/162/93
f 62/184/94 75/177/95 46/170/96 63/185/97
s 1
f 8/19/98 5/20/99 24/16/17 23/15/16
s off
f 22/125/100 24/132/101 5/137/102
f 25/134/103 22/125/104 6/139/105
s 1
f 6/11/106 7/12/107 26/10/13 25/9/12
s off
f 12/131/108 18/127/109 1/136/110
f 20/133/111 19/128/112 2/138/113
f 80/148/114 81/149/115 76/143/116
f 84/202/117 85/204/118 86/205/119
s 1
f 28/23/120 27/24/121 5/20/99 8/19/98
f 31/13/122 30/14/123 7/12/107 6/11/106
s off
f 22/125/124 32/141/125 31/142/126 6/139/127
f 5/137/128 27/140/129 32/141/130 22/125/131
f 32/107/132 27/108/133 34/109/134 33/110/135
f 30/117/136 31/113/137 40/114/138 39/118/139
f 28/111/140 29/115/141 43/116/142 41/112/143
f 42/119/144 44/120/145 36/121/146 35/122/147
f 27/108/148 28/111/149 41/112/150 34/109/151
f 29/115/152 30/117/153 39/118/154 43/116/155
f 31/113/156 32/107/157 33/110/158 40/114/159
f 38/123/160 36/121/161 44/120/162 37/124/163
f 23/188/164 9/182/165 48/183/166 47/189/167
f 13/168/168 21/169/169 51/164/170 50/163/171
f 16/171/172 13/168/173 50/163/174 53/167/175
f 9/182/176 3/175/177 54/176/178 48/183/179
f 21/169/180 4/172/181 55/173/182 51/164/183
f 10/178/184 26/186/185 56/187/186 57/179/187
f 8/192/188 23/188/189 47/189/190 62/184/191 61/193/192
f 26/186/193 7/190/194 72/191/195 71/180/196 56/187/197
f 3/175/198 16/171/199 53/167/200 54/176/201
f 4/172/202 10/178/203 57/179/204 55/173/205
s 4
f 28/197/206 8/192/207 61/193/208 60/198/209 58/199/210
f 7/190/211 30/194/212 59/195/213 73/196/214 72/191/215
s off
f 14/129/216 17/130/217 18/127/218 15/126/219
f 87/208/220 88/207/221 89/206/222
s 6
f 60/198/223 63/185/224 65/209/225 64/210/226
f 64/210/226 65/209/225 66/211/227 67/212/228
f 67/212/228 66/211/227 68/213/229 69/214/230
f 69/214/230 68/213/229 70/181/231 73/196/232
s 7
f 90/215/233 91/216/234 92/217/235
s 8
f 94/219/236 95/220/237 96/221/238
s 4
f 29/200/239 28/197/206 58/199/210 67/201/240
f 30/194/212 29/200/239 67/201/240 59/195/213
s 9
f 99/223/241 98/224/242 100/225/243
f 100/225/243 101/227/244 99/223/241
s 7
f 92/217/235 91/216/234 93/218/245
s 9
f 100/225/243 98/224/242 102/226/246
f 103/228/247 101/227/244 100/225/243
s 8
f 94/219/236 96/221/238 97/222/248
s off
f 60/198/249 61/193/250 62/184/251 63/185/252
f 70/181/253 71/180/254 72/191/255 73/196/256
f 71/180/257 70/181/258 46/170/259 74/174/260
f 78/145/261 77/144/262 82/147/263
f 45/166/264 46/170/265 75/177/266
f 89/206/267 88/207/268 84/202/269 86/205/270
f 45/35/271 75/36/272 77/37/273 76/38/274
s 10
f 47/43/275 48/44/276 79/45/277 78/46/278
f 48/44/276 54/47/279 80/48/280 79/45/277
f 54/47/279 53/51/281 81/52/282 80/48/280
s off
f 53/41/283 45/35/284 76/38/285 81/42/286
f 75/36/287 62/39/288 82/40/289 77/37/290
s 10
f 62/49/291 47/43/275 78/46/278 82/50/292
s off
f 52/53/293 51/54/294 83/55/295 84/56/296
s 11
f 51/61/297 55/62/298 85/63/299 83/64/300
f 55/62/298 57/65/301 86/66/302 85/63/299
s off
f 71/59/303 74/57/304 88/58/305 87/60/306
s 11
f 56/67/307 71/69/308 87/70/309 89/68/310
s off
f 74/57/311 52/53/312 84/56/313 88/58/314
s 11
f 57/65/301 56/67/307 89/68/310 86/66/302
s off
f 67/71/315 58/72/316 91/73/317 90/74/318
s 12
f 64/77/319 67/71/320 90/74/321 92/78/322
s off
f 58/72/323 60/75/324 93/76/325 91/73/326
s 12
f 60/79/327 64/77/319 92/78/322 93/80/328
s off
f 59/81/329 67/82/330 95/83/331 94/84/332
s 13
f 67/82/333 69/87/334 96/88/335 95/83/336
f 69/87/334 73/89/337 97/90/338 96/88/335
s off
f 73/85/339 59/81/340 94/84/341 97/86/342
s 14
f 66/91/343 65/92/344 98/93/345 99/94/346
s 15
f 68/99/347 66/100/348 99/101/349 101/102/350
s 14
f 65/92/344 63/95/351 102/96/352 98/93/345
s off
f 63/95/353 46/97/354 100/98/355 102/96/356
s 15
f 70/103/357 68/99/347 101/102/350 103/104/358
s off
f 46/105/359 70/103/360 103/104/361 100/106/362
